<svg class="svg-icon" style="width: 1em; height: 1em;vertical-align: middle;fill: currentColor;overflow: hidden;" viewBox="0 0 1024 1024" version="1.1" xmlns="http://www.w3.org/2000/svg"><path d="M447.146667 955.733333C201.386667 955.733333 0 757.76 0 512S201.386667 68.266667 447.146667 68.266667h430.08C959.146667 68.266667 1024 133.12 1024 215.04c0 13.653333-3.413333 27.306667-6.826667 40.96v3.413333l-143.36 385.706667c-58.026667 184.32-228.693333 310.613333-426.666666 310.613333z m0-853.333333C218.453333 102.4 34.133333 286.72 34.133333 512s184.32 409.6 413.013334 409.6c180.906667 0 341.333333-116.053333 395.946666-286.72l139.946667-382.293333v-3.413334c3.413333-13.653333 6.826667-23.893333 6.826667-34.133333C989.866667 153.6 938.666667 102.4 877.226667 102.4H447.146667z" fill="" /><path d="M529.066667 750.933333c-6.826667 0-13.653333-3.413333-17.066667-10.24l-71.68-174.08-102.4 174.08c-3.413333 6.826667-6.826667 10.24-13.653333 10.24h-102.4c-6.826667 0-13.653333-3.413333-13.653334-10.24-3.413333-6.826667-3.413333-13.653333 0-17.066666l184.32-283.306667-13.653333-64.853333H324.266667c-10.24 0-17.066667-6.826667-17.066667-17.066667v-102.4c0-10.24 6.826667-17.066667 17.066667-17.066667H443.733333c6.826667 0 13.653333 3.413333 17.066667 10.24l129.706667 361.813334 54.613333-13.653334c3.413333 0 10.24 0 13.653333 3.413334 3.413333 3.413333 6.826667 6.826667 6.826667 10.24l17.066667 85.333333c3.413333 10.24-3.413333 17.066667-13.653334 20.48l-136.533333 34.133333h-3.413333z m-276.48-34.133333h61.44l116.053333-197.973333c3.413333-6.826667 10.24-10.24 17.066667-6.826667 6.826667 0 13.653333 3.413333 13.653333 10.24l78.506667 191.146667 105.813333-27.306667-10.24-51.2-51.2 13.653333c-6.826667 3.413333-17.066667-3.413333-20.48-10.24L430.08 273.066667H341.333333v68.266666h51.2c6.826667 0 13.653333 6.826667 17.066667 13.653334l17.066667 85.333333c0 3.413333 0 10.24-3.413334 13.653333l-170.666666 262.826667z" fill="" /><path d="M443.733333 887.466667C235.52 887.466667 68.266667 720.213333 68.266667 512S235.52 136.533333 443.733333 136.533333s375.466667 167.253333 375.466667 375.466667-167.253333 375.466667-375.466667 375.466667z m0-716.8C256 170.666667 102.4 324.266667 102.4 512s153.6 341.333333 341.333333 341.333333 341.333333-153.6 341.333334-341.333333S631.466667 170.666667 443.733333 170.666667z" fill="" /></svg>